<?xml version="1.0" encoding="UTF-8" standalone="no"?>
<!-- Created with Inkscape (http://www.inkscape.org/) -->
<svg
   xmlns:dc="http://purl.org/dc/elements/1.1/"
   xmlns:cc="http://web.resource.org/cc/"
   xmlns:rdf="http://www.w3.org/1999/02/22-rdf-syntax-ns#"
   xmlns:svg="http://www.w3.org/2000/svg"
   xmlns="http://www.w3.org/2000/svg"
   xmlns:sodipodi="http://sodipodi.sourceforge.net/DTD/sodipodi-0.dtd"
   xmlns:inkscape="http://www.inkscape.org/namespaces/inkscape"
   width="242"
   height="316.81519"
   id="svg2"
   sodipodi:version="0.32"
   inkscape:version="0.45.1"
   version="1.0"
   sodipodi:docbase="C:\Documents and Settings\Renata3\Desktop"
   sodipodi:docname="Skywarn.svg"
   inkscape:output_extension="org.inkscape.output.svg.inkscape">
  <defs
     id="defs4" />
  <sodipodi:namedview
     id="base"
     pagecolor="#ffffff"
     bordercolor="#666666"
     borderopacity="1.0"
     gridtolerance="10000"
     guidetolerance="10"
     objecttolerance="10"
     inkscape:pageopacity="0.0"
     inkscape:pageshadow="2"
     inkscape:zoom="1.7297151"
     inkscape:cx="121"
     inkscape:cy="76.179732"
     inkscape:document-units="px"
     inkscape:current-layer="layer1"
     inkscape:showpageshadow="false"
     showborder="false"
     showguides="false"
     showgrid="false"
     inkscape:window-width="1280"
     inkscape:window-height="744"
     inkscape:window-x="0"
     inkscape:window-y="22" />
  <metadata
     id="metadata7">
    <rdf:RDF>
      <cc:Work
         rdf:about="">
        <dc:format>image/svg+xml</dc:format>
        <dc:type
           rdf:resource="http://purl.org/dc/dcmitype/StillImage" />
      </cc:Work>
    </rdf:RDF>
  </metadata>
  <g
     inkscape:label="Layer 1"
     inkscape:groupmode="layer"
     id="layer1"
     transform="translate(-85.928577,-444.79077)">
    <rect
       style="opacity:1;fill:#ffffff;fill-opacity:1;stroke:none;stroke-width:2;stroke-linecap:butt;stroke-miterlimit:4;stroke-dasharray:none;stroke-dashoffset:0;stroke-opacity:0.32236843"
       id="rect2163"
       width="274.03357"
       height="119.09476"
       x="-19.078287"
       y="212.17368"
       transform="translate(85.928577,444.79077)" />
    <path
       style="fill:#000000"
       d="M 85.928577,557.67519 L 85.928577,444.79077 L 206.92857,444.79077 L 327.92857,444.79077 L 327.92857,557.84404 L 327.92857,670.89732 L 206.92857,670.72847 L 85.928577,670.55962 L 85.928577,557.67519 z "
       id="path2231" />
    <path
       style="fill:#ffffff;fill-opacity:1"
       d="M 231.51614,628.28851 C 253.93781,624.05187 275.001,612.67346 292.28114,595.46304 C 302.65248,585.13355 309.46323,575.96603 315.87589,563.70362 C 317.53796,560.36882 321.66966,551.82495 324.15276,546.34427 C 323.73421,544.54476 323.16889,543.40921 322.30756,540.35868 C 314.1524,515.47314 292.59573,490.42809 266.92857,476.01808 C 237.54537,459.52181 197.8651,456.57445 164.6759,468.42298 C 137.42565,478.15132 116.30205,496.39115 101.13338,523.29077 C 98.34208,528.24077 94.873327,535.28562 93.425037,538.94599 L 90.791782,545.60121 L 94.057573,553.44599 C 96.27949,558.66484 98.82536,564.0252 101.87284,569.13663 C 109.71324,582.97451 126.03692,599.99526 140.52428,609.43859 C 158.38505,621.08083 176.86297,627.42584 200.92857,630.18041 C 206.50178,630.81832 223.78507,629.74932 231.51614,628.28851 z "
       id="path2229"
       sodipodi:nodetypes="cscccsssccccssc" />
    <path
       sodipodi:type="arc"
       style="opacity:1;fill:#000000;fill-opacity:1;stroke:none;stroke-width:2;stroke-linecap:butt;stroke-miterlimit:4;stroke-dasharray:none;stroke-dashoffset:0;stroke-opacity:0.32236843"
       id="path7191"
       sodipodi:cx="-113.18066"
       sodipodi:cy="102.48125"
       sodipodi:rx="65.071167"
       sodipodi:ry="70.005478"
       d="M -112.78277,32.477078 A 65.071167,70.005478 0 1 1 -113.55744,32.476943"
       transform="matrix(1.2227685,0,0,1.135465,346.57663,429.40797)"
       sodipodi:start="4.7185037"
       sodipodi:end="10.989784"
       sodipodi:open="true" />
    <path
       id="path2249"
       style="fill:#000000"
       d="M 97.37348,760.72249 C 95.69317,760.23415 93.21817,758.66485 91.873476,757.23517 C 89.596676,754.81447 89.405781,753.78163 89.09702,742.21326 L 88.765464,729.79077 L 94.313189,729.79077 L 99.86091,729.79077 L 100.14474,740.54077 C 100.4279,751.26508 100.43455,751.29077 102.92857,751.29077 C 105.40436,751.29077 105.43134,751.19652 105.71455,741.56067 C 106.04722,730.24146 105.31847,728.27073 97.66428,719.79077 C 90.447785,711.79573 88.9768,708.02297 88.950539,697.4419 C 88.924455,686.93231 90.531924,682.68141 95.40698,680.36804 C 100.03047,678.17405 106.72592,678.36985 110.73875,680.8164 C 115.1043,683.47801 116.92857,688.17654 116.92857,696.75865 L 116.92857,703.79077 L 111.42857,703.79077 L 105.92857,703.79077 L 105.92857,696.91321 C 105.92857,689.68716 104.65019,687.19289 101.55532,688.38051 C 100.23578,688.88686 99.92857,690.55513 99.92857,697.21444 L 99.92857,705.42412 L 106.92973,713.85745 C 116.52765,725.41872 116.92857,726.45589 116.92857,739.72402 C 116.92857,753.68354 115.70792,757.08144 109.71621,759.80085 C 105.09533,761.89809 102.17007,762.11652 97.37348,760.72249 z M 248.44751,759.83244 L 247.11826,746.79077 L 239.47595,746.73562 L 237.99373,759.83244 L 229.85968,759.83244 L 237.02472,679.62721 L 250.5035,679.62721 L 256.99003,759.83244 L 248.44751,759.83244 z M 243.45993,708.77763 L 241.01461,736.79077 L 245.90526,736.79077 L 243.45993,708.77763 z M 262.92857,679.60872 L 279.94387,679.94975 C 283.65299,680.43497 287.95362,680.37598 288.74958,699.7488 C 288.94719,704.48041 289.05504,708.23907 288.8736,710.23246 C 288.82228,710.79632 288.77866,716.97109 286.9019,720.02518 L 290.88096,759.83244 L 280.49862,759.83244 L 276.85058,720.02518 L 272.92857,720.02518 L 272.92857,759.83244 L 262.92857,759.83244 L 262.92857,679.60872 z M 276.84662,708.84552 C 278.55803,707.89844 278.53378,707.1076 278.72058,698.63769 C 278.88317,691.24075 278.40655,690.28824 275.67857,689.97435 L 272.92857,689.65793 L 272.92857,709.61908 C 273.96122,709.61908 275.8628,709.44553 276.84662,708.84552 z M 296.95718,679.62801 L 306.3426,679.62801 L 314.18789,718.38343 L 314.18789,679.62801 L 323.92857,679.62801 L 323.92857,759.83244 L 314.94174,759.83244 L 306.3426,716.29077 L 306.95718,759.83244 L 296.95718,759.83244 L 296.95718,679.62801 z M 122.92857,679.62721 L 132.92857,679.62721 L 132.92857,704.91259 L 141.39451,679.62721 L 151.21565,679.62721 L 140.20054,713.62964 L 151.00003,759.83244 L 140.85906,759.83244 L 132.92857,728.29077 L 132.92857,759.83244 L 122.92857,759.83244 L 122.92857,679.62721 z M 162.92857,744.02141 C 162.92857,729.48826 162.64842,726.43171 158.61702,704.77141 L 153.9372,679.62721 L 163.29683,679.62721 L 167.97665,709.42538 L 172.65647,679.62721 L 182.0161,679.62721 L 177.17515,704.6429 C 173.23769,724.98979 173.05022,729.42845 172.99397,744.32285 L 172.93554,759.79216 L 162.92857,759.83244 L 162.92857,744.02141 z M 184.44365,679.62721 L 194.83242,679.62721 L 197.93438,716.72709 L 202.26579,679.62721 L 213.75957,679.62721 L 217.42643,716.62196 L 220.25065,679.62721 L 230.77141,679.62721 L 222.53231,759.83244 L 212.03858,759.83244 L 207.68041,703.05514 L 201.54485,759.83244 L 191.05112,759.83244 L 184.44365,679.62721 z "
       sodipodi:nodetypes="cscccccsssssscccccscccssccccccccccccccccsscccccccccsccccccccccccccccccccccccccccscccccssccccccccccccccccc" />
    <path
       style="fill:#ff7800;fill-opacity:1"
       d="M 211.92857,612.77946 C 211.92857,612.22324 210.18421,609.18574 208.0522,606.02946 C 201.98476,597.04703 201.24165,594.08211 203.24856,586.86362 C 205.0807,580.27378 205.41609,574.73213 204.07304,573.24077 C 203.6025,572.71827 200.3727,565.09077 196.89571,556.29077 C 191.17768,541.81889 190.51556,539.38071 189.963,530.76215 C 189.58733,524.90264 188.78923,520.44216 187.89033,519.17836 C 184.66216,514.63972 181.28189,511.13883 179.40687,510.39218 C 166.17162,505.12175 149.47349,505.81495 147.55965,511.71428 C 147.27836,512.58135 145.67422,517.2412 143.9949,522.06951 C 135.43437,546.68242 138.96816,570.76462 153.73998,588.48042 C 162.40695,598.8747 177.34329,608.15258 191.30124,611.81203 C 199.01887,613.83541 211.92857,614.44088 211.92857,612.77946 z "
       id="path2225" />
    <path
       style="fill:#ff7800;fill-opacity:1"
       d="M 225.46847,611.28083 C 248.79257,605.37188 266.79372,587.52846 273.0752,564.09125 C 275.84576,553.75388 276.06751,535.17655 273.53153,525.86217 C 268.74258,508.27282 257.46721,496.82765 244.90108,496.80054 C 239.92656,496.7898 238.05568,497.80088 230.26416,504.71074 C 227.42373,507.22975 223.7637,510.29404 222.13076,511.52026 C 219.86027,513.22523 218.74211,515.34263 217.37802,520.52026 C 216.39696,524.24404 214.48876,529.52327 213.13759,532.2519 C 209.42801,539.74317 208.90209,551.69803 211.92635,559.78483 C 214.66331,567.10338 214.33817,572.62104 210.51178,583.79077 C 206.4944,595.51799 207.24396,602.28046 213.36593,609.54077 C 216.48863,613.24413 217.27346,613.35697 225.46847,611.28083 z "
       id="path2221" />
  </g>
</svg>
